<svg xmlns="http://www.w3.org/2000/svg" width="30.877" height="31.182" viewBox="0 0 30.877 31.182">
  <g id="Pacco_regalo" data-name="Pacco regalo" transform="translate(-1109.906 -47.739)">
    <path id="Tracciato_12" data-name="Tracciato 12" d="M1115.351,63.287V81.42h27.733V63.287h1.2V58.31h-29.877v4.978h28.677" transform="translate(-4 -3)" fill="none" stroke="#707070" stroke-width="1"/>
    <path id="Tracciato_13" data-name="Tracciato 13" d="M1122.623,58.31v23.1" transform="translate(-3 -3)" fill="none" stroke="#707070" stroke-width="1"/>
    <path id="Tracciato_14" data-name="Tracciato 14" d="M1122.623,58.31v23.1" transform="translate(8 -3)" fill="none" stroke="#707070" stroke-width="1"/>
    <path id="Tracciato_15" data-name="Tracciato 15" d="M1129.345,58.31V55.272a6.63,6.63,0,0,1,1.992-3.237,6.039,6.039,0,0,1,3.61-.747V58.31" transform="translate(-4 -3)" fill="none" stroke="#707070" stroke-width="1"/>
    <path id="Tracciato_16" data-name="Tracciato 16" d="M1134.947,58.31V55.272a6.63,6.63,0,0,0-1.992-3.237,6.039,6.039,0,0,0-3.61-.747V58.31" transform="translate(-10 -3)" fill="none" stroke="#707070" stroke-width="1"/>
    <path id="Tracciato_17" data-name="Tracciato 17" d="M1123.345,54.785s-4.3-.969-4.208,3.436" transform="translate(-4 -3)" fill="none" stroke="#707070" stroke-width="1"/>
    <path id="Tracciato_18" data-name="Tracciato 18" d="M1119.136,54.785s4.3-.969,4.208,3.436" transform="translate(12 -3)" fill="none" stroke="#707070" stroke-width="1"/>
  </g>
</svg>
